<?xml version="1.0" standalone="yes"?>
<svg xmlns="http://www.w3.org/2000/svg" width="511" height="87">
<path style="fill:#010101; stroke:none;" d="M0 0L0 28L1 28C3.83129 9.18015 25.1783 2.7524 41 9.90432C46.8366 12.5426 51.5303 19.4973 57.2855 21.338C61.1749 22.5819 66.6537 18.1406 71 18C71.0084 7.08178 76.4834 4.69216 86 1L59 0L0 0z"/>
<path style="fill:#3d6db9; stroke:none;" d="M71 18L54 23C47.3959 5.9536 21.404 1.37233 8.09336 13.3287C-3.82289 24.0325 -3.3214 50.8607 8.18519 61.7755C12.3353 65.7121 18.5783 66.8779 24 68C17.0882 81.175 50.1464 87.3693 51 69C59.5566 71.0135 68.6034 67.9872 74 61L75 61C84.9882 76.8567 97.9561 67.4641 111 65.0972C116.007 64.1887 123.231 70.473 129 70.7901C134.853 71.1119 140.762 66.2821 146.285 67.5224C154.053 69.2664 175.789 74.8303 180.821 65.8912C185.883 56.8987 181.02 39.8779 181 30C180.993 26.4488 181.845 20.5709 178.486 18.179C174.464 15.3149 168.856 18.4525 165 19.9853C155.38 23.8092 148.641 24.0846 141 32C140.995 24.3258 140.812 19.2137 132 19C132 14.4118 133.74 5.15842 130.258 1.60339C121.083 -7.7636 106.024 9.49448 106 18L97 19C97 13.9266 98.5219 5.44026 94.3472 1.60339C89.4834 -2.86678 74.9133 3.32469 72.0278 8.21297C70.404 10.9638 71.0003 14.9366 71 18z"/>
<path style="fill:#010101; stroke:none;" d="M94 0L94 1C100.22 5.89776 100 10.5817 100 18L106 18C106.095 7.52055 112.831 4.12228 122 1L94 0M130 0L130 1L136.603 17.6211L145 27C153.062 24.0708 170.844 14.1482 178.96 18.5733C189.445 24.29 185 46.8498 185 57C185 61.477 185.944 67.3377 181.852 70.3966C173.403 76.7131 157.055 69.9701 148 69.6528C141.489 69.4246 136.028 73.8585 129 72.787C124.182 72.0525 119.715 66.8515 115 67.098C108.469 67.4394 103.478 73.233 96 72.956C89.0752 72.6995 83.1975 65.4283 77 65.8133C73.9549 66.0024 57.9982 71.2081 55.588 73.0278C51.8323 75.8633 52.7016 81.1977 46.9961 82.527C36.8812 84.8838 22.6322 80.5473 22 69C11.0775 66.2404 2.67124 57.1498 1 46L0 46L0 87L473 87L473 86C464.231 80.809 462.758 70.3607 458 62C454.147 66.651 453.34 73.6394 448.786 77.6821C441.362 84.2738 422.722 80.6157 420 71L385 72C384.069 75.5623 382.718 78.9645 378.981 80.3966C375.74 81.6392 371.411 81.0367 368 80.9961C358.166 80.8792 339.135 82.583 331.044 76.4275C320.922 68.7262 327.542 51.6072 324.427 41.0147C321.453 30.898 312.042 24.2912 312.529 12.0008C313.008 -0.111916 329.038 6.40882 336 5.82639C346.308 4.96404 366.175 -3.55597 371.4 10.0039C372.656 13.2629 372.727 17.535 373 21C382.451 22.3488 392.83 19.3316 402 21.3935C420.877 25.6382 423 45.4955 423 61L424 61C429.543 47.686 436.796 34.9011 443.247 22C445.961 16.5714 448.427 8.38377 453.213 4.44907C457.727 0.737816 462.777 4.51154 466 8C475.907 5.1679 490.878 -1.67334 500.995 3.57639C508.356 7.39546 507.918 14.8268 508.004 22C508.16 35.0158 510 47.9348 510 61L511 61L511 0L130 0z"/>
<path style="fill:#b9bbbb; stroke:none;" d="M95 2L97 19L100 19C100 12.6096 101.567 5.31205 95 2M131 2L132 19L136 19C136 12.6808 137.422 5.37003 131 2z"/>
<path style="fill:#3d6db9; stroke:none;" d="M325 36C323.206 45.1924 325.505 55.6954 325.961 65C326.16 69.0469 325.974 73.4711 329.939 75.8565C333.913 78.2477 340.569 76.9061 345 77.0147C355.243 77.2656 379.386 84.4532 381 70C389.523 70 408.824 73.5077 415.772 68.2577C428.325 58.7717 416.974 29.6843 406.83 23.0093C399.083 17.9115 377.924 20.3924 369 22C369 16.4663 370.393 7.63811 365.581 3.60339C359.467 -1.52347 342.377 5.40904 335 5.79089C328.834 6.11005 319.496 1.36288 314.434 6.43364C307.663 13.2162 315.977 35.3174 325 36M457 56C458.011 63.4713 462.25 78.4208 468.39 83.2577C474.258 87.8793 489.427 84.3926 491 77C495.495 77 503.142 78.2102 505.972 73.7215C508.266 70.0833 507.045 63.1343 506.996 59C506.841 45.969 506.12 31.9177 504.424 19C503.831 14.4817 505.081 8.20317 501.991 4.43364C498.392 0.0430756 492.07 3.10796 488 5C482.877 -2.24926 470.038 6.48962 464 9C461.97 1.62608 454.613 0.366829 450.352 7.04398C442.265 19.7161 436.477 34.5513 429.753 48C426.446 54.6148 421.041 62.523 420.232 70C419.042 80.9975 441.225 80.6382 446.363 74.7716C451.19 69.259 451.752 61.1972 457 56M198 39C192.346 41.958 185.802 56.8905 190.603 62.686C193.498 66.1799 201.738 67.4309 206 68.5216C216.72 71.2651 223.623 68.8334 234 68.1481C238.03 67.882 241.931 69.915 246 69.9213C251.109 69.9292 255.752 67.7521 260.715 67.2901C267.945 66.617 274.163 70.6821 282 68.9853C295.458 66.0718 307.337 55.6666 294 44L294 43C302.949 35.9065 297.455 26.8668 288 24.044C279.73 21.575 273.835 25.733 266 25.733C257.015 25.733 251.417 22.5086 242 25C243.912 20.887 245.968 16.4141 242.99 12.2245C240.071 8.11817 233.539 7.25451 229 6.0108C214.185 1.95163 190.624 2.88161 192.097 24C192.483 29.5313 195.485 34.2183 198 39z"/>
<path style="fill:#b9bbbb; stroke:none;" d="M367 4L369 22C376.62 19.469 371.537 7.45666 367 4M488 4L489 5L488 4M502 4L503 5L502 4M463 5L466 9L463 5M503 5C505.929 20.7799 504.342 37.1368 506.424 53C507.127 58.3544 509.008 69.1848 505.397 73.7215C502.118 77.8397 495.649 76.9995 491 77C488.077 85.1519 478.401 84.4159 471 85L471 86C479.016 87.9085 492.589 88.8951 495 79C499.281 79 506.136 80.236 509.258 76.5664C512.349 72.9328 511.146 65.3444 510.576 61C509.1 49.758 509.901 38.2474 508.424 27C507.491 19.8948 510.377 9.02863 503 5z"/>
<path style="fill:#b3a74a; stroke:none;" d="M87 6L88 7L87 6z"/>
<path style="fill:#fecd04; stroke:none;" d="M78 24L67 24L68 29C61.9948 27.8851 56.4156 27.6254 51.0008 30.9946C47.9686 32.8813 45.3778 37.3063 41.8302 38.0679C38.5113 38.7804 34.0932 36.0464 31 35L28 44C23.6152 41.7882 20.7747 34.9609 27.1088 32.6227C30.3594 31.4228 53.6395 33.9812 46.7932 22.0895C44.2624 17.6935 38.6843 15.3829 34 14.2392C-3.42261 5.10253 -1.79368 69.0232 32 61L29 73C42.0652 73.561 44.8819 74.1679 46 60C63.3008 71.5625 75 53.733 75 38L78 38C78 44.6962 76.593 53.4133 81.3032 58.8951C87.4969 66.1032 102.801 67.4177 107.821 57.9568C110.52 52.87 108.614 46.0922 107 41C100.188 44.2229 90.106 57.8582 90.0008 43.0247L90 38C103.132 37.9899 103.132 25.0101 90 25L91 6C80.6735 7.84077 74.8577 13.3692 78 24z"/>
<path style="fill:#b3a74a; stroke:none;" d="M123 6L124 7L123 6z"/>
<path style="fill:#fecd04; stroke:none;" d="M113 24L103 24L105 38L113 38C113.004 44.176 112.663 52.772 116.514 57.9568C123.225 66.9928 138.353 66.9051 144 57C153.12 65.6268 164.173 64 176 64L175 23C166.928 25.3254 154.562 27.9596 148.184 33.5293C144.059 37.132 134.81 50.8315 129.005 50.794C123.59 50.759 125.626 40.9738 126 38L135 38L135 25L126 25L126 6C114.641 9.27093 113 12.7843 113 24z"/>
<path style="fill:#b3a74a; stroke:none;" d="M126 6L126 25L127 25L126 6M85 7L86 8L85 7M121 7L122 8L121 7M83 8L84 9L83 8M119 8L120 9L119 8M359 8L359 9L362 9L359 8M481 8L482 9L481 8z"/>
<path style="fill:#fecd04; stroke:none;" d="M467 23L471 22L472 42L471 42L458 9L456 9L426 72C430.232 72 438.785 73.6512 442.006 70.3966C446.683 65.6713 447.85 49.31 455.09 47.9475C459.217 47.1708 460.998 52.0846 462.28 55.0008C465.787 62.979 468.688 71.4222 473 79L485 78L483 71L501 71C501 51.6034 502.502 26.6134 497 8L484 13L483 8C474.51 11.2938 467.219 12.7974 467 23z"/>
<path style="fill:#b3a74a; stroke:none;" d="M483 8L484 9L483 8M495 8L496 9L495 8M497 8L498 9L497 8M81 9L82 10L81 9M117 9L118 10L117 9M352 9L352 10L355 10L352 9z"/>
<path style="fill:#fecd04; stroke:none;" d="M319 11L323 30L331 31L333 71L375 73C375 68.8076 374.175 64.4796 378 62L378 41C382.782 46.0819 383.056 56.3622 382 63C399.465 68.1626 398.015 51.2393 395 39L396 39L400 64L413 64C413.478 52.8577 416.068 41.2743 407.671 32.1049C401.478 25.3411 395.786 28.2236 388 28.4144C372.366 28.7974 359.374 29.0223 344 33L344 25C357.925 24.7126 363 23.1517 363 9L319 11z"/>
<path style="fill:#b3a74a; stroke:none;" d="M479 9L480 10L479 9M493 9L494 10L493 9M79 10L80 11L79 10M114 10L115 11L114 10M207.667 10.3333L208.333 10.6667L207.667 10.3333z"/>
<path style="fill:#fecd04; stroke:none;" d="M223 48L223 51L200 45L195 59C210.187 62.5135 220.745 68.2627 235 59C241.438 68.7141 253.281 60.848 261.715 60.5031C265.727 60.339 269.808 63.5216 274 63.787C279.206 64.1168 294.62 61.4884 293.825 53.9853C293.477 50.7021 289.901 47.5258 288 45L287 45L281 51C283.562 47.2537 293.39 39.0871 291.694 34.2137C288.59 25.2953 272.53 31.7012 267.17 33.2076C263.392 34.2692 259.717 30.7811 256 30.213C244.597 28.4701 237.384 33.329 232 43L211 24C219.289 22.7036 226.475 27.3072 234 30L239 16C228.786 12.6767 214.419 6.18667 204.105 12.4174C186.329 23.156 212.974 44.1999 223 48z"/>
<path style="fill:#b3a74a; stroke:none;" d="M219.667 10.3333L220.333 10.6667L219.667 10.3333M319 10L319 11L322 11L319 10M346.667 10.3333L347.333 10.6667L346.667 10.3333M458 10L459 11L458 10M476 10L477 11L476 10M491 10L492 11L491 10M77 11L78 12L77 11M205 11L206 12L205 11M224 11L225 12L224 11M326 11L326 12L329 12L326 11M339 11L339 12L342 12L339 11M474 11L475 12L474 11M488 11L489 12L488 11M203 12L204 13L203 12M228 12L229 13L228 12z"/>
<path style="fill:#b9bbbb; stroke:none;" d="M243 12L242 25C249.501 23.399 249.402 15.2289 243 12z"/>
<path style="fill:#b3a74a; stroke:none;" d="M332 12L332 13L335 13L332 12M459 12L460 13L459 12M472 12L473 13L472 12M486 12L487 13L486 12M21.6667 13.3333L22.3333 13.6667L21.6667 13.3333M30.6667 13.3333L31.3333 13.6667L30.6667 13.3333z"/>
<path style="fill:#b9bbbb; stroke:none;" d="M47 13L48 14L47 13z"/>
<path style="fill:#b3a74a; stroke:none;" d="M231 13L232 14L231 13M469 13L470 14L469 13M18 14L19 15L18 14M35 14L36 15L35 14z"/>
<path style="fill:#b9bbbb; stroke:none;" d="M48 14L49 15L48 14z"/>
<path style="fill:#b3a74a; stroke:none;" d="M234 14L235 15L234 14M319.333 14.6667L319.667 15.3333L319.333 14.6667M38 15L39 16L38 15z"/>
<path style="fill:#b9bbbb; stroke:none;" d="M49 15L56 23L49 15z"/>
<path style="fill:#b3a74a; stroke:none;" d="M200 15L201 16L200 15M237 15L238 16L237 15M460 15L461 16L460 15M467.333 15.6667L467.667 16.3333L467.333 15.6667M498 15L498 21L499 21L498 15M14 16L15 17L14 16M40 16L41 17L40 16M90 16L90 25L91 25L90 16M199 17L200 18L199 17M238 17L239 18L238 17M461 17L462 18L461 17M43 18L44 19L43 18M320.333 18.6667L320.667 19.3333L320.333 18.6667z"/>
<path style="fill:#b9bbbb; stroke:none;" d="M180 19C182.144 30.5492 182.005 43.2561 182 55C181.998 59.8515 182.383 65.1325 177.891 68.2577C171.075 73 156.829 69.3309 149 69L149 70C155.562 72.3914 178.315 75.7131 183.397 69.6821C186.027 66.5598 185 60.7804 185 57C185 47.2413 189.288 24.7278 180 19z"/>
<path style="fill:#b3a74a; stroke:none;" d="M10 20L11 21L10 20M198 20L198 25L199 25L198 20M237 20L238 21L237 20M462 20L463 21L462 20M466 20L466 23L467 23L466 20M46 21L47 22L46 21z"/>
<path style="fill:#b9bbbb; stroke:none;" d="M140 21L141 32C145.573 28.1756 145.014 24.0927 140 21z"/>
<path style="fill:#b3a74a; stroke:none;" d="M363 21L364 22L363 21M47 22L48 23L47 22M321.333 22.6667L321.667 23.3333L321.333 22.6667M362 22L363 23L362 22M463 22L464 23L463 22M469 22L470 25L471 25L471 22L469 22M484 22L484 26L485 26L484 22M8 23L9 24L8 23M77 23L78 24L77 23M215 23L216 24L215 23M236 23L237 24L236 23M356.667 23.3333L357.333 23.6667L356.667 23.3333M48 24L49 25L48 24M170 24L171 25L170 24M175 24L175 40L176 40L175 24M219 24L220 25L219 24M350.667 24.3333L351.333 24.6667L350.667 24.3333M99 25L100 26L99 25M135 25L135 38L136 38L135 25M168 25L169 26L168 25M223 25L224 26L223 25M344.667 25.3333L345.333 25.6667L344.667 25.3333z"/>
<path style="fill:#b9bbbb; stroke:none;" d="M409 25C415.227 33.9461 429.772 60.3851 413.956 68.821C406.236 72.9388 389.759 70 381 70C377.999 84.8295 343.848 77 332 77L332 78L358 80.1698L379.945 80.3966L385 72C392.983 72 411.877 75.515 418.502 70.9722C422.907 67.9509 422.992 60.6834 423 56C423.021 43.7141 421.633 30.8951 409 25z"/>
<path style="fill:#b3a74a; stroke:none;" d="M464 25L465 26L464 25M7 26L8 27L7 26M48 26L49 27L48 26M166 26L167 27L166 26M235 26L236 27L235 26M322.333 26.6667L322.667 27.3333L322.333 26.6667M67.3333 27.6667L67.6667 28.3333L67.3333 27.6667M164 27L165 28L164 27M199 27L200 28L199 27M212 27L213 28L212 27M228 27L229 28L228 27M367 27L367 28L371 28L367 27M379 27L379 28L383 28L379 27M392.667 27.3333L393.333 27.6667L392.667 27.3333M401 27L402 28L401 27M465 27L466 28L465 27M45 28L46 29L45 28M55.6667 28.3333L56.3333 28.6667L55.6667 28.3333M65 28L66 29L65 28M103.333 28.6667L103.667 29.3333L103.333 28.6667M156.667 28.3333L157.333 28.6667L156.667 28.3333M230 28L231 29L230 28M234 28L235 29L234 28z"/>
<path style="fill:#b9bbbb; stroke:none;" d="M296 28L297 29L296 28z"/>
<path style="fill:#b3a74a; stroke:none;" d="M361 28L362 29L361 28M375 28L376 29L375 28M388.667 28.3333L389.333 28.6667L388.667 28.3333M403 28L404 29L403 28M53 29L54 30L53 29M154 29L155 30L154 29M200 29L201 30L200 29M248 29L248 30L255 30L248 29M276 29L276 30L284 30L276 29z"/>
<path style="fill:#b9bbbb; stroke:none;" d="M297 29L298 30L297 29z"/>
<path style="fill:#b3a74a; stroke:none;" d="M344 29L346 33L344 29M360 29L361 30L360 29M6.33333 30.6667L6.66667 31.3333L6.33333 30.6667M42 30L43 31L42 30M51 30L52 31L51 30M152 30L153 31L152 30M216 30L217 31L216 30M244 30L245 31L244 30M258 30L259 31L258 30M273 30L274 31L273 30M287 30L288 31L287 30z"/>
<path style="fill:#b9bbbb; stroke:none;" d="M298 30C299.297 35.6633 297.793 38.7316 294 43L294 44C296.238 46.7792 300.015 50.2488 300.339 54C301.2 63.9698 284.397 68.9141 277 69.696C271.302 70.2983 266.43 66.7816 261 66.9985C255.961 67.1997 251.192 69.8436 246 69.8202C241.611 69.8005 237.367 67.1603 233 67.8179C228.53 68.4911 224.69 70.8656 220 70.7407C210.957 70.5 202.78 66.2967 194 65L194 66C216.694 76.0597 240.058 71.9995 263.715 70.0748C272.758 69.3391 280.54 73.6308 290 70.4769C296.852 68.1926 305.714 62.4681 303.563 54C302.823 51.0831 299.515 48.4708 299.672 45.4244C299.998 39.0804 306.494 34.4576 298 30z"/>
<path style="fill:#b3a74a; stroke:none;" d="M324.667 30.3333L325.333 30.6667L324.667 30.3333M355.667 30.3333L356.333 30.6667L355.667 30.3333M150 31L151 32L150 31M201 31L202 32L201 31M218 31L219 32L218 31M260 31L261 32L260 31M270 31L271 32L270 31M289 31L290 32L289 31M330 31L330 34L331 34L330 31M349.667 31.3333L350.333 31.6667L349.667 31.3333M25 32L26 33L25 32M31.6667 32.3333L32.3333 32.6667L31.6667 32.3333M39 32L40 33L39 32M149 32L150 33L149 32M202 32L203 33L202 32M220 32L221 33L220 32M240 32L241 33L240 32M262 32L263 33L262 32M467 32L468 33L467 32M485 32L485 42L486 42L485 32M499 32L499 37L500 37L499 32M24 33L25 34L24 33M47 33L48 34L47 33M238 33L239 34L238 33M267 33L268 34L267 33M292 33L293 34L292 33z"/>
<path style="fill:#3d6db9; stroke:none;" d="M456 33L458 39L456 33z"/>
<path style="fill:#b3a74a; stroke:none;" d="M34 34L35 35L34 34M36 34L37 35L36 34M46 34L47 35L46 34M104.333 34.6667L104.667 35.3333L104.333 34.6667M237 34L238 35L237 34M293.333 34.6667L293.667 35.3333L293.333 34.6667M409 34L410 35L409 34M457 34L458 35L457 34M468 34L469 35L468 34M23 35L24 36L23 35M32 35L33 36L32 35M225 35L226 36L225 35M236 35L237 36L236 35M264 35L265 36L264 35M410 35L411 36L410 35M455 35L456 36L455 35M30 36L31 37L30 36M35 36L36 37L35 36M58 36L56 39L60 38L58 36z"/>
<path style="fill:#3d6db9; stroke:none;" d="M59 36L60 37L59 36z"/>
<path style="fill:#b3a74a; stroke:none;" d="M145 36L146 37L145 36M159 36L160 37L159 36M226 36L227 37L226 36M235 36L236 37L235 36M292 36L293 37L292 36z"/>
<path style="fill:#b9bbbb; stroke:none;" d="M322 36L325 38L322 36z"/>
<path style="fill:#b3a74a; stroke:none;" d="M37 37L38 38L37 37z"/>
<path style="fill:#3d6db9; stroke:none;" d="M58 37C53.3863 45.8342 63.2231 48.1169 67 40C62.4144 41.8006 60.6703 40.9839 58 37z"/>
<path style="fill:#b3a74a; stroke:none;" d="M99 37L100 38L99 37M144 37L145 38L144 37z"/>
<path style="fill:#3d6db9; stroke:none;" d="M158 37C155.712 41.8608 156.51 44.855 162 46L160 37L158 37z"/>
<path style="fill:#b3a74a; stroke:none;" d="M263 37L264 38L263 37M291 37L292 38L291 37M411 37L412 38L411 37M469 37L470 38L469 37M29 38L30 39L29 38M40 38L41 39L40 38M77 38L77 49L78 49L77 38M159 38L160 39L159 38z"/>
<path style="fill:#3d6db9; stroke:none;" d="M262 38L263 39L262 38z"/>
<path style="fill:#b3a74a; stroke:none;" d="M454.667 38.3333L455.333 38.6667L454.667 38.3333M458 38L459 39L458 38M471 38L471 42L472 42L471 38M59.3333 39.6667L59.6667 40.3333L59.3333 39.6667M66 39L67 40L66 39M143 39L144 40L143 39M156 39L157 40L156 39M259 42L263 40L259 42z"/>
<path style="fill:#3d6db9; stroke:none;" d="M395 39L396 40L395 39z"/>
<path style="fill:#b3a74a; stroke:none;" d="M412 39L413 40L412 39M55 40L55 43L56 43L55 40M75 40L75 47L76 47L75 40M210 40L211 41L210 40M233 40L234 41L233 40M245 40L246 41L245 40z"/>
<path style="fill:#3d6db9; stroke:none;" d="M243 47L249 40C244.749 40.9075 243.486 42.7431 243 47M261 40L252 51C255.8 48.8735 261.988 44.8816 261 40M271 48L272 48L278 40C273.14 40.7685 271.533 43.235 271 48z"/>
<path style="fill:#b3a74a; stroke:none;" d="M395.667 40.3333L396.333 40.6667L395.667 40.3333M6.33333 41.6667L6.66667 42.3333L6.33333 41.6667M23 41L24 42L23 41M60 41L61 42L60 41M64 41L65 42L64 41M66 41L67 42L66 41M105 41L106 42L105 41M125 41L125 48L126 48L125 41M141 41L142 42L141 41M160 41L161 42L160 41M231 41L232 42L231 41M272 41L273 42L272 41M288 41L289 42L288 41M378 41L379 42L378 41M440 41L441 42L440 41M107 42L108 43L107 42M139 42L140 43L139 42M213 42L214 43L213 42M232 42L233 43L232 42M243 42L244 43L243 42M247 42L248 43L247 42M287 42L288 43L287 42M358 42L359 43L358 42z"/>
<path style="fill:#3d6db9; stroke:none;" d="M345 45L346 57L361 58L361 42L345 45z"/>
<path style="fill:#b3a74a; stroke:none;" d="M27 43L28 44L27 43M65 43L66 44L65 43M102 43L103 44L102 43M138 43L139 44L138 43M214 43L215 44L214 43M246 43L247 44L246 43M271 43L272 44L271 43M275 43L276 44L275 43M286 43L287 44L286 43M352.667 43.3333L353.333 43.6667L352.667 43.3333M380.333 43.6667L380.667 44.3333L380.333 43.6667M397 43L398 44L397 43M439 43L440 44L439 43M56 44L57 45L56 44M136 44L137 45L136 44M200 44L201 45L200 44M216 44L217 45L216 44M242 44L244 48L242 44M274 44L275 45L274 44M347.667 44.3333L348.333 44.6667L347.667 44.3333M377.333 44.6667L377.667 45.3333L377.333 44.6667M413 44L414 45L413 44M57 45L58 46L57 45M63 45L64 46L63 45M99 45L100 46L99 45M108 45L109 46L108 45M135 45L136 46L135 45M158 45L159 46L158 45M199 45L200 46L199 45M202 45L203 46L202 45M256 45L257 46L256 45M259 45L261 47L261 45L259 45M273 45L274 46L273 45z"/>
<path style="fill:#3d6db9; stroke:none;" d="M285 45L281 51L285 45z"/>
<path style="fill:#b3a74a; stroke:none;" d="M286 45L287 46L286 45M396.333 45.6667L396.667 46.3333L396.333 45.6667M438 45L439 46L438 45M60.6667 46.3333L61.3333 46.6667L60.6667 46.3333M133 46L134 47L133 46M161 46L162 47L161 46M204 46L205 47L204 46M219 46L220 47L219 46M255 46L256 47L255 46M257 46L258 47L257 46M7 47L8 48L7 47M96 47L96 50L97 50L96 47M113 47L113 50L114 50L113 47M132 47L133 48L132 47M206 47L207 48L206 47M254 47L255 48L254 47M256 47L257 48L256 47M283 47L284 48L283 47M285 47L286 48L285 47M289 47L290 48L289 47M331 47L331 53L332 53L331 47M398 47L399 48L398 47M437 47L438 48L437 47M455.667 47.3333L456.333 47.6667L455.667 47.3333M109 48L109 54L110 54L109 48M198 48L199 49L198 48M208 48L209 49L208 48M222 48L223 49L222 48M282 48L283 49L282 48M284 48L285 49L284 48M290 48L291 49L290 48M381 48L382 49L381 48M452 48L453 49L452 48M459 48L460 49L459 48M500 48L500 54L501 54L500 48M211.667 49.3333L212.333 49.6667L211.667 49.3333M281 49L282 50L281 49M283 49L284 50L283 49M345 49L345 54L346 54L345 49z"/>
<path style="fill:#b9bbbb; stroke:none;" d="M351 52L355 49L351 52z"/>
<path style="fill:#b3a74a; stroke:none;" d="M436 49L437 50L436 49M8 50L9 51L8 50M74 50L75 51L74 50M90 50L91 51L90 50M216 50L217 51L216 50M253 50L254 51L253 50M282 50L283 51L282 50M451 50L452 51L451 50M460 50L461 51L460 50M91 51L92 52L91 51M94 51L95 52L94 51M127 51L128 52L127 51M130 51L131 52L130 51M197 51L198 52L197 51M220 51L221 52L220 51M251 51L252 52L251 51M280 51L281 52L280 51M435 51L436 52L435 51M9 52L10 53L9 52M73 52L74 53L73 52M450 52L451 53L450 52M486 52L486 59L487 59L486 52M78.3333 53.6667L78.6667 54.3333L78.3333 53.6667M294 53L295 54L294 53M399 53L399 64L400 64L399 53M434 53L435 54L434 53M10 54L11 55L10 54M114 54L115 55L114 54M196 54L197 55L196 54M11 55L12 56L11 55M71 55L72 56L71 55M294 55L295 56L294 55M361 55L361 58L362 58L361 55M433 55L434 56L433 55M462 55L463 56L462 55M70 56L71 57L70 56M195 56L196 57L195 56M377 56L377 61L378 61L377 56M396 56L396 59L397 59L396 56z"/>
<path style="fill:#b9bbbb; stroke:none;" d="M455 56C452.363 62.4283 449.492 73.3543 442.957 76.821C438.095 79.4 430.355 78 425 78L425 79C441.489 83.8739 460.235 75.9494 457 56L455 56z"/>
<path style="fill:#b3a74a; stroke:none;" d="M115 57L116 58L115 57M347 57L347 58L355 58L347 57M432 57L433 58L432 57M448 57L449 58L448 57M463 57L464 58L463 57M14 58L15 59L14 58M80 58L81 59L80 58M116 58L117 59L116 58M143 58L144 59L143 58M145 58L146 59L145 58M382 58L382 62L383 62L382 58M413.333 58.6667L413.667 59.3333L413.333 58.6667M67 59L68 60L67 59M81 59L82 60L81 59M117 59L118 60L117 59M146 59L147 60L146 59M197 59L198 60L197 59M234 59L235 60L234 59M290 59L291 60L290 59M431 59L432 60L431 59M447 59L448 60L447 59M18 60L19 61L18 60M66 60L67 61L66 60M82 60L83 61L82 60M118 60L119 61L118 60M147 60L148 61L147 60M200 60L201 61L200 60M260 60L261 61L260 60M21.6667 61.3333L22.3333 61.6667L21.6667 61.3333M30.6667 61.3333L31.3333 61.6667L30.6667 61.3333M64 61L65 62L64 61z"/>
<path style="fill:#b9bbbb; stroke:none;" d="M74 61C67.2963 67.1139 60.165 70.6256 51 69C49.6929 83.4068 37.3349 79.0856 27 79L27 80C32.4409 82.2959 45.6488 85.1165 50.7716 81.2577C54.1217 78.7342 53.6142 73.5592 58.0586 72.3171C62.3388 71.121 81.4818 69.0872 74 61z"/>
<path style="fill:#b3a74a; stroke:none;" d="M119 61L120 62L119 61M140 61L141 62L140 61M148 61L149 62L148 61M203 61L204 62L203 61M236 61L237 62L236 61M258 61L259 62L258 61M286 61L287 62L286 61M430 61L431 62L430 61M446 61L447 62L446 61M62 62L63 63L62 62M85 62L86 63L85 62M103 62L104 63L103 62M121 62L122 63L121 62M150 62L151 63L150 62M206 62L207 63L206 62M238 62L239 63L238 62M255 62L256 63L255 62M267 62L268 63L267 62M283 62L284 63L283 62M375.667 62.3333L376.333 62.6667L375.667 62.3333M465 62L466 63L465 62M31 63L32 64L31 63M52.6667 63.3333L53.3333 63.6667L52.6667 63.3333M58.6667 63.3333L59.3333 63.6667L58.6667 63.3333M87 63L88 64L87 63M101 63L102 64L101 63z"/>
<path style="fill:#b9bbbb; stroke:none;" d="M84 69L84 70C95.1168 74.2811 105.771 74.278 115 66C110.352 61.7469 105.114 68.2431 100 69.6991C94.3399 71.3106 89.6091 69.7553 84 69z"/>
<path style="fill:#b3a74a; stroke:none;" d="M123 63L124 64L123 63M136 63L137 64L136 63M153 63L154 64L153 63M159 63L160 64L159 63M210 63L211 64L210 63M241.667 63.3333L242.333 63.6667L241.667 63.3333M249 63L249 64L252 64L249 63M270.667 63.3333L271.333 63.6667L270.667 63.3333M278.667 63.3333L279.333 63.6667L278.667 63.3333M382 63L383 64L382 63M395 63L396 64L395 63M429 63L430 64L429 63M445 63L446 64L445 63M45 64L45 67L46 67L45 64M90 64L91 65L90 64M96.6667 64.3333L97.3333 64.6667L96.6667 64.3333M126 64L127 65L126 64M132.667 64.3333L133.333 64.6667L132.667 64.3333M215.667 64.3333L216.333 64.6667L215.667 64.3333M224 64L225 65L224 64M466 64L467 65L466 64z"/>
<path style="fill:#b9bbbb; stroke:none;" d="M13.6667 65.3333L14.3333 65.6667L13.6667 65.3333z"/>
<path style="fill:#b3a74a; stroke:none;" d="M428 65L429 66L428 65M444 65L445 66L444 65M501 65L501 71L502 71L501 65z"/>
<path style="fill:#b9bbbb; stroke:none;" d="M15 66L15 67L24 69L15 66z"/>
<path style="fill:#b3a74a; stroke:none;" d="M30 66L31 67L30 66z"/>
<path style="fill:#b9bbbb; stroke:none;" d="M122 70L122 71C131.853 74.5911 139.507 72.1642 149 69L122 70z"/>
<path style="fill:#b3a74a; stroke:none;" d="M332 66L332 70L333 70L332 66M427 67L428 68L427 67M467 67L468 68L467 67z"/>
<path style="fill:#b9bbbb; stroke:none;" d="M83 68L84 69L83 68M119 68L120 69L119 68z"/>
<path style="fill:#b3a74a; stroke:none;" d="M29 69L30 70L29 69z"/>
<path style="fill:#b9bbbb; stroke:none;" d="M120.667 69.3333L121.333 69.6667L120.667 69.3333z"/>
<path style="fill:#b3a74a; stroke:none;" d="M426 69L427 70L426 69M468 69L469 70L468 69M442 70L443 71L442 70M487 70L488 71L487 70M345 71L345 72L351 72L345 71M469 71L470 72L469 71M483 71L484 72L483 71M365 72L365 73L371 73L365 72M31 73L31 74L35 74L31 73M44 73L45 74L44 73M43 74L44 75L43 74M470 74L471 75L470 74z"/>
<path style="fill:#010101; stroke:none;" d="M510 75C505.906 79.6389 500.78 79 495 79C493.205 83.5213 490.848 85.4555 486 86L486 87L511 87L510 75z"/>
<path style="fill:#b9bbbb; stroke:none;" d="M331 76L332 77L331 76z"/>
<path style="fill:#b3a74a; stroke:none;" d="M471 76L472 77L471 76M485.333 76.6667L485.667 77.3333L485.333 76.6667M472 78L473 79L472 78M475 78L475 79L479 79L475 78z"/>
</svg>
